<svg width="21" height="21" viewBox="0 0 21 21" fill="none" xmlns="http://www.w3.org/2000/svg">
<mask id="mask0_1049_145" style="mask-type:luminance" maskUnits="userSpaceOnUse" x="3" y="3" width="15" height="15">
<path d="M10.6189 3.54346C14.5852 3.54346 17.797 6.65675 17.797 10.4999C17.797 14.343 14.5821 17.4563 10.6189 17.4563C6.65571 17.4563 3.4408 14.3399 3.4408 10.4999C3.4408 6.65983 6.65571 3.54346 10.6189 3.54346Z" fill="white"/>
</mask>
<g mask="url(#mask0_1049_145)">
<path fill-rule="evenodd" clip-rule="evenodd" d="M16.5534 1.26465L19.9931 16.2091L4.67921 19.735L1.2395 4.79058L16.5534 1.26465Z" fill="#0090CC"/>
<path fill-rule="evenodd" clip-rule="evenodd" d="M9.76651 7.89513C9.80971 7.88587 9.84056 7.83959 9.82822 7.7964C9.81896 7.7532 9.77268 7.72543 9.72949 7.73469C9.68629 7.74395 9.65544 7.79023 9.66778 7.83342C9.67704 7.87662 9.72332 7.90438 9.76651 7.89513Z" fill="white"/>
<path fill-rule="evenodd" clip-rule="evenodd" d="M9.76003 7.87036C9.79089 7.86419 9.8094 7.83334 9.80323 7.80557C9.79706 7.7778 9.7662 7.75929 9.73844 7.76546C9.70758 7.77163 9.68907 7.80248 9.69833 7.83025C9.7045 7.85802 9.73535 7.87653 9.76312 7.87036H9.76003ZM9.77855 7.95058C9.85259 7.93207 9.89887 7.8611 9.88345 7.78706C9.86802 7.71301 9.79397 7.66981 9.71992 7.68524C9.64588 7.70375 9.5996 7.77472 9.61502 7.84876C9.63045 7.92281 9.7045 7.96601 9.77855 7.95058Z" fill="#FCFDFD"/>
<path fill-rule="evenodd" clip-rule="evenodd" d="M9.77368 7.92321C9.8323 7.91086 9.86932 7.85224 9.85698 7.79362C9.84464 7.735 9.78293 7.69798 9.72431 7.7134C9.66569 7.72574 9.62866 7.78437 9.64101 7.84299C9.65335 7.90161 9.71197 7.93863 9.77368 7.92321ZM9.79219 8.00343C9.89709 7.97874 9.96188 7.87693 9.9372 7.77511C9.91252 7.67329 9.8107 7.6085 9.7058 7.63318C9.6009 7.65787 9.5361 7.75968 9.56079 7.8615C9.58547 7.96332 9.68729 8.02811 9.79219 8.00343Z" fill="#FAFCFD"/>
<path fill-rule="evenodd" clip-rule="evenodd" d="M9.78596 7.97497C9.87526 7.95341 9.93069 7.86719 9.90914 7.78096C9.88758 7.69474 9.80136 7.63931 9.71205 7.66087C9.62275 7.68242 9.56732 7.76864 9.58888 7.85487C9.61043 7.94109 9.69666 7.99652 9.78596 7.97497ZM9.80444 8.05503C9.93685 8.02424 10.0231 7.89182 9.99228 7.76249C9.96149 7.63007 9.82907 7.55001 9.69666 7.5808C9.56424 7.61159 9.47802 7.74401 9.50881 7.87334C9.53961 8.00576 9.67202 8.08582 9.80444 8.05503Z" fill="#F8FAFC"/>
<path fill-rule="evenodd" clip-rule="evenodd" d="M9.7984 8.02713C9.9185 7.99942 9.9924 7.8824 9.96469 7.76538C9.93698 7.64836 9.81996 7.57754 9.69986 7.60525C9.57976 7.63297 9.50586 7.74998 9.53357 7.867C9.56129 7.98402 9.6783 8.05485 9.7984 8.02713ZM9.81688 8.1072C9.98009 8.07024 10.0817 7.91011 10.0448 7.74998C10.0078 7.58985 9.84459 7.49131 9.68138 7.52827C9.51817 7.56522 9.41655 7.72535 9.45351 7.88548C9.49046 8.04561 9.65367 8.14415 9.81688 8.1072Z" fill="#F6F9FC"/>
<path fill-rule="evenodd" clip-rule="evenodd" d="M9.80773 8.07929C9.95554 8.04542 10.0479 7.90069 10.014 7.75287C9.98017 7.60814 9.83236 7.51576 9.68455 7.54963C9.53674 7.5835 9.44435 7.72824 9.47823 7.87605C9.5121 8.02078 9.65991 8.11316 9.80773 8.07929ZM9.8262 8.15936C10.0202 8.11624 10.1403 7.92532 10.0972 7.73748C10.0541 7.54963 9.86316 7.42953 9.66915 7.47573C9.47515 7.51884 9.35505 7.70976 9.39816 7.89761C9.44127 8.08545 9.6322 8.20555 9.8262 8.15936Z" fill="#F6F9FC"/>
<path fill-rule="evenodd" clip-rule="evenodd" d="M9.81801 8.13177C9.99661 8.09174 10.1075 7.91621 10.0674 7.74068C10.0274 7.56516 9.85188 7.45738 9.67328 7.49741C9.49467 7.53744 9.38381 7.71297 9.42384 7.88849C9.46388 8.06402 9.6394 8.1718 9.81801 8.13177ZM9.83648 8.21183C10.0582 8.15948 10.1999 7.94084 10.1475 7.72221C10.0982 7.50357 9.87652 7.36807 9.6548 7.42042C9.43308 7.47277 9.29143 7.69141 9.34378 7.91005C9.39305 8.12869 9.61477 8.26418 9.83648 8.21183Z" fill="#F4F8FB"/>
<path fill-rule="evenodd" clip-rule="evenodd" d="M9.82946 8.18735C10.0358 8.13808 10.1682 7.93484 10.122 7.73159C10.0758 7.52835 9.8695 7.4021 9.6601 7.44829C9.45378 7.49756 9.32136 7.7008 9.36755 7.90404C9.41374 8.10728 9.62006 8.23354 9.82946 8.18735ZM9.84794 8.26741C10.1005 8.2089 10.2575 7.96255 10.2021 7.71312C10.1436 7.46677 9.89413 7.31279 9.64162 7.3713C9.38911 7.42981 9.23206 7.67617 9.28749 7.9256C9.346 8.17195 9.59543 8.32592 9.84794 8.26741Z" fill="#F3F7FB"/>
<path fill-rule="evenodd" clip-rule="evenodd" d="M9.84331 8.23965C10.0804 8.18423 10.2282 7.95327 10.1759 7.71923C10.1235 7.4852 9.88642 7.34046 9.64931 7.39589C9.41219 7.45132 9.26438 7.68228 9.31673 7.91632C9.36908 8.15035 9.6062 8.29508 9.84331 8.23965ZM9.86179 8.31972C10.1451 8.25505 10.3206 7.9779 10.256 7.70076C10.1913 7.42361 9.91106 7.25116 9.63083 7.31583C9.34753 7.3805 9.172 7.65764 9.23667 7.93479C9.30133 8.21194 9.58156 8.38439 9.86179 8.31972Z" fill="#F0F6FA"/>
<path fill-rule="evenodd" clip-rule="evenodd" d="M9.85556 8.29182C10.1235 8.23023 10.2898 7.96848 10.2282 7.70673C10.1666 7.44498 9.90175 7.28177 9.63692 7.34336C9.36901 7.40495 9.20272 7.6667 9.26431 7.92845C9.3259 8.1902 9.59073 8.35341 9.85556 8.29182ZM9.87404 8.37189C10.1851 8.30106 10.3821 7.99312 10.3113 7.68826C10.2405 7.38339 9.93255 7.19247 9.61845 7.2633C9.30742 7.33412 9.11034 7.64207 9.18117 7.94693C9.252 8.25179 9.55994 8.44271 9.87404 8.37189Z" fill="#EFF5FA"/>
<path fill-rule="evenodd" clip-rule="evenodd" d="M9.86858 8.34415C10.1642 8.2764 10.3521 7.98386 10.2843 7.69439C10.2166 7.40185 9.92093 7.22324 9.62531 7.29099C9.32969 7.35874 9.14184 7.65128 9.20959 7.94074C9.27734 8.23329 9.57296 8.4119 9.86858 8.34415ZM9.88706 8.42421C10.2289 8.34723 10.4414 8.01157 10.3644 7.67592C10.2874 7.34026 9.94865 7.13394 9.60683 7.21092C9.26502 7.28791 9.05254 7.62357 9.12952 7.95922C9.20651 8.29488 9.54525 8.5012 9.88706 8.42421Z" fill="#EFF5FA"/>
<path fill-rule="evenodd" clip-rule="evenodd" d="M9.8813 8.39679C10.2077 8.32289 10.411 8.00263 10.3401 7.67929C10.2662 7.35903 9.94289 7.15887 9.61647 7.23585C9.29005 7.30976 9.08681 7.63002 9.15764 7.95336C9.23154 8.27362 9.55488 8.47378 9.8813 8.39679ZM9.89978 8.47686C10.2693 8.39063 10.5033 8.02726 10.4202 7.66389C10.3371 7.30052 9.96752 7.07264 9.59799 7.15887C9.22846 7.24509 8.99443 7.60846 9.07757 7.97183C9.16072 8.3352 9.53025 8.56308 9.89978 8.47686Z" fill="#ECF4F9"/>
<path fill-rule="evenodd" clip-rule="evenodd" d="M9.89469 8.44912C10.2519 8.36598 10.4736 8.018 10.3936 7.66695C10.3135 7.3159 9.95935 7.10034 9.60214 7.18348C9.24493 7.26662 9.02321 7.6146 9.10328 7.96565C9.18334 8.31363 9.53747 8.53226 9.89469 8.44912ZM9.91316 8.52918C10.3135 8.4368 10.566 8.04264 10.4736 7.65155C10.3843 7.25739 9.98399 7.01411 9.58367 7.10649C9.18334 7.19888 8.93083 7.59304 9.02321 7.98413C9.11252 8.37829 9.51284 8.62157 9.91316 8.52918Z" fill="#EAF2F9"/>
<path fill-rule="evenodd" clip-rule="evenodd" d="M9.90306 8.50143C10.288 8.41213 10.5313 8.03336 10.442 7.6546C10.3557 7.27583 9.97081 7.04179 9.58588 7.1311C9.20096 7.2204 8.95768 7.59917 9.04391 7.97793C9.13013 8.3567 9.51506 8.59074 9.89998 8.50143H9.90306ZM9.92154 8.5815C10.3527 8.48296 10.6206 8.06108 10.5251 7.63612C10.4266 7.21424 10.0016 6.95249 9.57049 7.05103C9.13937 7.14957 8.87146 7.57145 8.96692 7.99641C9.06546 8.41829 9.49042 8.68004 9.92154 8.5815Z" fill="#E9F1F9"/>
<path fill-rule="evenodd" clip-rule="evenodd" d="M9.91688 8.55376C10.3326 8.4583 10.5913 8.04873 10.4989 7.64225C10.4065 7.23577 9.99079 6.98018 9.57814 7.07564C9.16242 7.1711 8.90375 7.58066 8.99614 7.98715C9.08852 8.39363 9.50424 8.64922 9.91688 8.55376ZM9.93536 8.63382C10.3942 8.52912 10.6837 8.07645 10.579 7.62378C10.4743 7.1711 10.0185 6.89087 9.55967 6.99865C9.10084 7.10335 8.81137 7.55603 8.91607 8.0087C9.02077 8.46138 9.47652 8.7416 9.93536 8.63382Z" fill="#E6F0F8"/>
<path fill-rule="evenodd" clip-rule="evenodd" d="M9.92928 8.60934C10.3758 8.50772 10.6529 8.07044 10.5544 7.63316C10.4528 7.19589 10.0124 6.9249 9.56591 7.02652C9.1194 7.12814 8.84225 7.56542 8.94079 8.00269C9.04241 8.43997 9.48277 8.71096 9.92928 8.60934ZM9.94776 8.6894C10.4374 8.57547 10.7453 8.09508 10.6345 7.61469C10.5236 7.1343 10.0371 6.8356 9.54744 6.94953C9.05781 7.06347 8.74987 7.54386 8.86073 8.02425C8.97159 8.50464 9.45813 8.80334 9.94776 8.6894Z" fill="#E6F0F8"/>
<path fill-rule="evenodd" clip-rule="evenodd" d="M9.94219 8.66167C10.4164 8.55389 10.7151 8.08582 10.6073 7.62082C10.4996 7.15583 10.0284 6.86637 9.55418 6.97415C9.07995 7.08193 8.78125 7.55 8.88903 8.01499C8.9968 8.47998 9.46796 8.76945 9.94219 8.66167ZM9.96066 8.74173C10.4811 8.62163 10.8044 8.11353 10.6874 7.60235C10.5704 7.09116 10.053 6.77706 9.5357 6.89716C9.01528 7.01726 8.69194 7.52536 8.80896 8.03655C8.92598 8.54465 9.44332 8.86183 9.96066 8.74173Z" fill="#E5EFF8"/>
<path fill-rule="evenodd" clip-rule="evenodd" d="M9.95444 8.71381C10.4595 8.59679 10.7766 8.10101 10.6627 7.6083C10.5488 7.11251 10.0468 6.80457 9.5418 6.92159C9.03677 7.03861 8.71959 7.53439 8.83353 8.0271C8.94747 8.52289 9.44941 8.83083 9.95444 8.71381ZM9.97291 8.79387C10.5211 8.66762 10.8659 8.12872 10.7428 7.58982C10.6196 7.05093 10.0745 6.71527 9.52332 6.84153C8.97518 6.96778 8.63029 7.50668 8.75347 8.04558C8.87664 8.58447 9.4217 8.92013 9.97291 8.79387Z" fill="#E3EEF7"/>
<path fill-rule="evenodd" clip-rule="evenodd" d="M9.96841 8.76598C10.5011 8.6428 10.8368 8.1193 10.7167 7.5958C10.5966 7.0723 10.0639 6.74588 9.53113 6.86906C8.99839 6.99223 8.66274 7.51573 8.78283 8.03923C8.90293 8.56273 9.43259 8.88915 9.96841 8.76598ZM9.98689 8.84604C10.5658 8.71363 10.9292 8.14393 10.7968 7.57732C10.6674 7.01071 10.0916 6.65658 9.51266 6.78899C8.93373 6.92141 8.57035 7.4911 8.70277 8.05771C8.8321 8.62432 9.40796 8.97846 9.98689 8.84604Z" fill="#E1EDF7"/>
<path fill-rule="evenodd" clip-rule="evenodd" d="M9.97664 8.81879C10.5402 8.68946 10.8943 8.13516 10.768 7.58087C10.6418 7.02657 10.0813 6.68476 9.5178 6.81409C8.95427 6.94343 8.60014 7.49772 8.72947 8.05202C8.85573 8.60631 9.41618 8.94813 9.97972 8.81879H9.97664ZM9.99511 8.89886C10.6018 8.76028 10.9836 8.16288 10.8481 7.56547C10.7095 6.96806 10.106 6.59853 9.49933 6.73711C8.89268 6.87568 8.51084 7.47309 8.64633 8.07049C8.7849 8.6679 9.38847 9.03743 9.99511 8.89886Z" fill="#E1EDF7"/>
<path fill-rule="evenodd" clip-rule="evenodd" d="M9.99002 8.8711C10.5843 8.7356 10.957 8.15051 10.8215 7.56851C10.686 6.9865 10.0978 6.62312 9.50347 6.7617C8.90915 6.89719 8.53654 7.48228 8.67203 8.06429C8.80753 8.6463 9.39569 9.00967 9.99002 8.8711ZM10.0085 8.95116C10.6459 8.80335 11.0463 8.17823 10.9015 7.55003C10.7568 6.92491 10.1224 6.53382 9.485 6.68163C8.84756 6.82945 8.44723 7.45457 8.59197 8.07969C8.7367 8.70481 9.37106 9.0959 10.0085 8.94808V8.95116Z" fill="#DFECF6"/>
<path fill-rule="evenodd" clip-rule="evenodd" d="M10.0029 8.92342C10.6249 8.77869 11.016 8.16897 10.8744 7.55616C10.7327 6.94336 10.1137 6.56459 9.4917 6.70933C8.86966 6.85406 8.47857 7.46378 8.62023 8.07659C8.76188 8.68939 9.38084 9.06816 10.0029 8.92342ZM10.0214 9.00349C10.6896 8.84952 11.1084 8.1936 10.9575 7.53769C10.8066 6.88177 10.1445 6.47529 9.4763 6.62926C8.80807 6.78323 8.38927 7.43915 8.54016 8.09506C8.69105 8.75098 9.35313 9.15746 10.0214 9.00349Z" fill="#DDEBF6"/>
<path fill-rule="evenodd" clip-rule="evenodd" d="M10.0158 8.97559C10.6686 8.8247 11.0782 8.18418 10.9303 7.54366C10.7825 6.90314 10.1359 6.5059 9.48302 6.65679C8.83018 6.80768 8.42062 7.4482 8.56843 8.08872C8.71624 8.72924 9.36292 9.12648 10.0158 8.97559ZM10.0342 9.05566C10.7302 8.89553 11.1675 8.20882 11.0104 7.52519C10.8534 6.84156 10.1605 6.4166 9.46454 6.57673C8.76859 6.73686 8.33132 7.42357 8.48837 8.1072C8.64542 8.79083 9.33829 9.21578 10.0342 9.05566Z" fill="#DBE9F5"/>
<path fill-rule="evenodd" clip-rule="evenodd" d="M10.0246 9.03084C10.7083 8.87379 11.1363 8.20248 10.9823 7.53425C10.8283 6.86293 10.1509 6.44721 9.46725 6.60426C8.78362 6.76131 8.35558 7.43263 8.50955 8.10086C8.66352 8.77217 9.34099 9.18789 10.0246 9.03084ZM10.0431 9.11091C10.7698 8.94462 11.2256 8.23019 11.0624 7.51577C10.8992 6.80135 10.1755 6.35791 9.44877 6.52728C8.72203 6.69357 8.26628 7.40799 8.42948 8.12241C8.59269 8.83684 9.31636 9.28027 10.0431 9.11091Z" fill="#DAE8F5"/>
<path fill-rule="evenodd" clip-rule="evenodd" d="M10.0385 9.08349C10.7498 8.92029 11.1963 8.22126 11.0362 7.52223C10.8761 6.8232 10.1678 6.38901 9.45646 6.55221C8.74512 6.71542 8.2986 7.41445 8.45873 8.11348C8.61886 8.81251 9.32712 9.2467 10.0385 9.08349ZM10.0569 9.16356C10.8145 8.98803 11.2887 8.24589 11.1163 7.50375C10.9438 6.76161 10.1924 6.2997 9.43798 6.47523C8.68045 6.65076 8.20622 7.3929 8.37866 8.13503C8.55111 8.87717 9.30249 9.33909 10.0569 9.16356Z" fill="#DAE8F5"/>
<path fill-rule="evenodd" clip-rule="evenodd" d="M10.0498 9.13582C10.7919 8.96645 11.2569 8.23663 11.0875 7.50681C10.9213 6.78007 10.1822 6.32739 9.44005 6.49676C8.69791 6.66613 8.23292 7.39595 8.40229 8.12269C8.57166 8.84944 9.30764 9.30211 10.0498 9.13274V9.13582ZM10.0683 9.21589C10.8535 9.0342 11.3462 8.26127 11.1707 7.49141C10.9921 6.71848 10.213 6.24117 9.42466 6.42286C8.6394 6.60454 8.1467 7.37747 8.32222 8.14733C8.50083 8.92026 9.27992 9.39757 10.0683 9.21589Z" fill="#D7E7F4"/>
<path fill-rule="evenodd" clip-rule="evenodd" d="M10.0602 9.18798C10.8301 9.00937 11.3166 8.25183 11.1411 7.4943C10.9656 6.73676 10.1988 6.26869 9.42892 6.44422C8.65907 6.62282 8.17252 7.38036 8.34805 8.1379C8.52358 8.89543 9.29035 9.3635 10.0602 9.18798ZM10.0787 9.26804C10.8947 9.0802 11.4059 8.27955 11.2211 7.4789C11.0364 6.67825 10.2265 6.18247 9.41045 6.36723C8.5944 6.55508 8.08322 7.35572 8.26798 8.15637C8.45275 8.95702 9.26264 9.45281 10.0787 9.26804Z" fill="#D5E6F3"/>
<path fill-rule="evenodd" clip-rule="evenodd" d="M10.0729 9.24029C10.8736 9.05553 11.3755 8.27028 11.1969 7.48195C11.0152 6.69669 10.2208 6.20707 9.42011 6.39183C8.61946 6.5766 8.11752 7.36185 8.29612 8.15018C8.47781 8.93543 9.2723 9.42506 10.0729 9.24029ZM10.0914 9.32036C10.9383 9.12635 11.4679 8.29491 11.277 7.46655C11.0861 6.63511 10.2454 6.12084 9.40163 6.31485C8.55479 6.50885 8.02513 7.34029 8.21606 8.16865C8.40698 9.0001 9.24766 9.51436 10.0914 9.32036Z" fill="#D3E5F3"/>
<path fill-rule="evenodd" clip-rule="evenodd" d="M10.0854 9.29261C10.9168 9.10168 11.4372 8.28564 11.2494 7.46959C11.0615 6.65355 10.2362 6.14852 9.40481 6.33945C8.57336 6.53037 8.05294 7.34642 8.24079 8.16246C8.42863 8.97851 9.25392 9.48353 10.0854 9.29261ZM10.1038 9.37267C10.9784 9.17251 11.5296 8.31027 11.3294 7.45112C11.1324 6.59196 10.2609 6.05922 9.38633 6.25938C8.51178 6.45955 7.96364 7.32178 8.16072 8.18094C8.35781 9.0401 9.22928 9.57283 10.1038 9.37267Z" fill="#D1E4F3"/>
<path fill-rule="evenodd" clip-rule="evenodd" d="M10.0982 9.34526C10.9574 9.14818 11.4994 8.30134 11.3023 7.45758C11.1083 6.61382 10.2522 6.09032 9.39304 6.2874C8.53388 6.48449 7.9919 7.33132 8.18591 8.17508C8.37991 9.01884 9.23599 9.54542 10.0951 9.34526H10.0982ZM10.1167 9.42533C11.022 9.21593 11.5887 8.32906 11.3854 7.4391C11.1822 6.55223 10.283 6.00102 9.37764 6.20734C8.47229 6.41674 7.90568 7.30361 8.10892 8.19356C8.31216 9.08043 9.21135 9.63165 10.1167 9.42533Z" fill="#D1E4F3"/>
<path fill-rule="evenodd" clip-rule="evenodd" d="M10.1116 9.39758C11.0015 9.19434 11.5589 8.31978 11.3587 7.44523C11.1586 6.57068 10.2717 6.0287 9.38176 6.23502C8.49181 6.44134 7.93443 7.31282 8.13459 8.18737C8.33476 9.06192 9.22163 9.6039 10.1116 9.39758ZM10.1301 9.47764C11.0631 9.26209 11.6513 8.34442 11.4388 7.42675C11.2263 6.50909 10.2994 5.9394 9.36328 6.15496C8.43022 6.37051 7.84205 7.28818 8.05453 8.20585C8.26701 9.12351 9.19391 9.6932 10.1301 9.47764Z" fill="#D0E3F2"/>
<path fill-rule="evenodd" clip-rule="evenodd" d="M10.1234 9.45267C11.0441 9.2402 11.62 8.33793 11.4137 7.43566C11.2073 6.53339 10.2927 5.97294 9.372 6.18542C8.45125 6.3979 7.8754 7.30016 8.08172 8.20243C8.28805 9.1047 9.20263 9.66515 10.1234 9.45267ZM10.1419 9.53274C11.1057 9.31102 11.7093 8.36256 11.4937 7.41718C11.2751 6.4718 10.3174 5.88363 9.35352 6.10535C8.38967 6.32707 7.7861 7.27553 8.00166 8.22091C8.2203 9.16629 9.178 9.75446 10.1419 9.53274Z" fill="#CDE1F2"/>
<path fill-rule="evenodd" clip-rule="evenodd" d="M10.1338 9.50549C11.0823 9.28685 11.6797 8.35379 11.4641 7.42381C11.2486 6.49074 10.3063 5.91489 9.35779 6.13353C8.40933 6.35217 7.81193 7.28523 8.02748 8.21522C8.24304 9.14828 9.18535 9.72413 10.1338 9.50857V9.50549ZM10.1523 9.58555C11.1469 9.35768 11.769 8.3815 11.5442 7.40533C11.3194 6.42915 10.3309 5.82559 9.33932 6.05347C8.34466 6.28134 7.72262 7.25752 7.94742 8.23369C8.17222 9.20987 9.16071 9.81343 10.1523 9.58555Z" fill="#CCE1F1"/>
<path fill-rule="evenodd" clip-rule="evenodd" d="M10.1461 9.55765C11.1253 9.33285 11.7381 8.37207 11.5195 7.40822C11.2978 6.44744 10.3247 5.85003 9.34541 6.07483C8.36616 6.29963 7.75335 7.26348 7.97199 8.22426C8.19063 9.18504 9.1668 9.78245 10.1461 9.55765ZM10.1645 9.63771C11.1869 9.4006 11.8305 8.39671 11.5995 7.39282C11.3686 6.38893 10.3524 5.76381 9.32693 6.00092C8.30457 6.23804 7.66097 7.24193 7.89193 8.24582C8.12288 9.24971 9.13909 9.87483 10.1645 9.63771Z" fill="#CCE1F1"/>
<path fill-rule="evenodd" clip-rule="evenodd" d="M10.16 9.60998C11.1701 9.37902 11.8014 8.38745 11.5735 7.39588C11.3456 6.4043 10.3417 5.7915 9.33474 6.02246C8.3247 6.25341 7.69342 7.24498 7.92129 8.23656C8.14917 9.22813 9.15306 9.84093 10.16 9.60998ZM10.1785 9.69004C11.2317 9.44677 11.8937 8.41208 11.6535 7.38048C11.4164 6.3458 10.3694 5.70528 9.31627 5.94855C8.26311 6.19182 7.60103 7.22651 7.84123 8.25811C8.07834 9.2928 9.12534 9.93331 10.1785 9.69004Z" fill="#C9DFF1"/>
<path fill-rule="evenodd" clip-rule="evenodd" d="M10.1718 9.66228C11.2096 9.42209 11.8624 8.4028 11.6284 7.38351C11.3944 6.36423 10.3627 5.73295 9.32498 5.97006C8.28722 6.21026 7.63438 7.22954 7.86842 8.24883C8.10246 9.26811 9.13406 9.89939 10.1718 9.66228ZM10.1903 9.74234C11.2743 9.49291 11.9517 8.43051 11.7085 7.36504C11.4652 6.30264 10.3874 5.64364 9.30651 5.89C8.22255 6.13943 7.54508 7.20183 7.78836 8.26731C8.03163 9.3297 9.10942 9.9887 10.1903 9.73927V9.74234Z" fill="#C8DEF0"/>
<path fill-rule="evenodd" clip-rule="evenodd" d="M10.1852 9.7146C11.2537 9.46824 11.922 8.41816 11.6818 7.37116C11.4416 6.32416 10.3792 5.67132 9.31063 5.91768C8.24207 6.16403 7.57384 7.21411 7.81403 8.26111C8.05423 9.30811 9.11662 9.96095 10.1852 9.7146ZM10.2037 9.79466C11.3153 9.53907 12.0144 8.44588 11.7618 7.35268C11.5093 6.25949 10.4038 5.58202 9.29215 5.83761C8.18048 6.0932 7.48145 7.1864 7.73397 8.27959C7.98648 9.37278 9.09199 10.0503 10.2037 9.79466Z" fill="#C6DDF0"/>
<path fill-rule="evenodd" clip-rule="evenodd" d="M10.198 9.76676C11.2943 9.51425 11.9841 8.43646 11.7378 7.35866C11.4883 6.28086 10.3982 5.61263 9.30193 5.86514C8.20566 6.11766 7.51587 7.19545 7.76223 8.27325C8.01166 9.35104 9.10177 10.0193 10.198 9.76676ZM10.2165 9.84683C11.359 9.58508 12.0765 8.46109 11.8178 7.34018C11.5591 6.21928 10.4259 5.52333 9.28346 5.78508C8.141 6.04683 7.42349 7.17082 7.68216 8.29172C7.94083 9.41263 9.07406 10.1086 10.2165 9.84683Z" fill="#C3DCEF"/>
<path fill-rule="evenodd" clip-rule="evenodd" d="M10.2105 9.81958C11.3375 9.56091 12.0458 8.45232 11.7902 7.34681C11.5346 6.2413 10.4137 5.55459 9.28663 5.81326C8.15957 6.07193 7.4513 7.18052 7.70689 8.28603C7.96248 9.39154 9.08339 10.0782 10.2105 9.81958ZM10.2289 9.89964C11.3991 9.62865 12.1351 8.48003 11.8703 7.32833C11.6054 6.17663 10.4414 5.46528 9.26815 5.73319C8.09798 6.00418 7.362 7.1528 7.62683 8.30451C7.89166 9.45621 9.05568 10.1676 10.2289 9.89964Z" fill="#C3DCEF"/>
<path fill-rule="evenodd" clip-rule="evenodd" d="M10.2197 9.87466C11.3775 9.60983 12.1012 8.47045 11.8425 7.33723C11.5808 6.20092 10.4321 5.49574 9.27428 5.76365C8.11642 6.02848 7.39275 7.16786 7.65143 8.30108C7.91318 9.43739 9.0618 10.1426 10.2197 9.87466ZM10.2381 9.95473C11.4391 9.67758 12.1936 8.49817 11.9226 7.31875C11.6516 6.13933 10.4568 5.40643 9.2558 5.68358C8.05483 5.96073 7.30037 7.14014 7.57136 8.31956C7.84235 9.49898 9.03716 10.2319 10.2381 9.95473Z" fill="#C2DBEF"/>
<path fill-rule="evenodd" clip-rule="evenodd" d="M10.2301 9.92699C11.4157 9.65292 12.1609 8.4889 11.893 7.32181C11.6251 6.15779 10.4456 5.43412 9.26007 5.70819C8.0745 5.98226 7.32928 7.14628 7.59719 8.31338C7.8651 9.4774 9.04451 10.2011 10.2301 9.92699ZM10.2486 10.0071C11.4803 9.72375 12.2533 8.51354 11.973 7.30641C11.6959 6.0962 10.4703 5.3479 9.2416 5.63121C8.00983 5.91451 7.2369 7.12472 7.51712 8.33185C7.79427 9.53899 9.01988 10.2904 10.2486 10.0071Z" fill="#BFD9EE"/>
<path fill-rule="evenodd" clip-rule="evenodd" d="M10.2414 9.97965C11.4578 9.69942 12.2215 8.50461 11.9443 7.30979C11.6702 6.11498 10.46 5.37592 9.24366 5.65615C8.02729 5.93637 7.2636 7.13119 7.54075 8.326C7.81482 9.52081 9.02503 10.2599 10.2414 9.98272V9.97965ZM10.2599 10.0597C11.5194 9.77025 12.3108 8.53232 12.0275 7.2944C11.7441 6.05647 10.4908 5.2897 9.22827 5.57916C7.96879 5.86863 7.17738 7.10655 7.46068 8.34448C7.74707 9.5824 8.99731 10.3492 10.2599 10.0597Z" fill="#BED9EE"/>
<path fill-rule="evenodd" clip-rule="evenodd" d="M10.2554 10.032C11.5025 9.74557 12.2816 8.51996 12.0014 7.29743C11.7212 6.0749 10.4802 5.31429 9.23608 5.60068C7.98891 5.88706 7.20982 7.11267 7.49005 8.3352C7.77028 9.55772 9.01128 10.3183 10.2554 10.032ZM10.2738 10.112C11.5641 9.81639 12.374 8.54768 12.0815 7.27896C11.7889 6.01332 10.5079 5.22499 9.2176 5.52369C7.92733 5.81931 7.11744 7.08803 7.40998 8.35675C7.70253 9.62239 8.98356 10.4107 10.2738 10.112Z" fill="#BBD7ED"/>
<path fill-rule="evenodd" clip-rule="evenodd" d="M10.2676 10.0843C11.5425 9.79174 12.3432 8.53841 12.0568 7.28509C11.7673 6.03177 10.5017 5.25576 9.22372 5.5483C7.94884 5.84085 7.1482 7.09417 7.43458 8.34749C7.72405 9.60081 8.98969 10.3768 10.2676 10.0843ZM10.2861 10.1643C11.6072 9.85948 12.4356 8.56305 12.1368 7.26662C11.8381 5.97018 10.5263 5.16645 9.20525 5.47132C7.88418 5.77618 7.05581 7.07261 7.35452 8.36905C7.65322 9.66548 8.96505 10.4692 10.2861 10.1643Z" fill="#BBD7ED"/>
<path fill-rule="evenodd" clip-rule="evenodd" d="M10.2805 10.1364C11.5862 9.83466 12.4053 8.55363 12.1097 7.27259C11.8141 5.99155 10.5176 5.19706 9.21196 5.49577C7.90629 5.79755 7.08716 7.07859 7.38279 8.35962C7.67841 9.64066 8.97484 10.4351 10.2805 10.1364ZM10.299 10.2165C11.6478 9.90549 12.4946 8.58134 12.1898 7.25411C11.8849 5.92996 10.5423 5.10776 9.19348 5.41878C7.8447 5.7298 6.99786 7.05703 7.30272 8.38118C7.60758 9.70533 8.95021 10.5275 10.299 10.2165Z" fill="#BAD6ED"/>
<path fill-rule="evenodd" clip-rule="evenodd" d="M10.2934 10.1888C11.6268 9.88081 12.4644 8.56898 12.1626 7.26023C11.8608 5.9484 10.5336 5.13543 9.20019 5.44337C7.8668 5.75131 7.0292 7.06315 7.3279 8.3719C7.62969 9.68373 8.95692 10.4967 10.2903 10.1888H10.2934ZM10.3119 10.2688C11.6914 9.95164 12.5568 8.59669 12.2457 7.24175C11.9347 5.88681 10.5644 5.04613 9.18479 5.36331C7.80521 5.68049 6.9399 7.03543 7.25092 8.39037C7.56194 9.74532 8.93228 10.586 10.3119 10.2688Z" fill="#B8D5EC"/>
<path fill-rule="evenodd" clip-rule="evenodd" d="M10.3034 10.2414C11.6675 9.92731 12.5236 8.58776 12.2157 7.24821C11.9077 5.90867 10.5497 5.07723 9.18552 5.39133C7.82134 5.70543 6.96527 7.04497 7.27321 8.38452C7.58115 9.72406 8.93917 10.5555 10.3034 10.2414ZM10.3218 10.3215C11.7322 9.99813 12.616 8.6124 12.2957 7.22974C11.9786 5.84708 10.5774 4.98792 9.16705 5.31126C7.75667 5.6346 6.87288 7.02034 7.19314 8.403C7.51032 9.78565 8.91146 10.6448 10.3218 10.3215Z" fill="#B6D4EC"/>
<path fill-rule="evenodd" clip-rule="evenodd" d="M10.3185 10.2967C11.7135 9.9764 12.5881 8.60606 12.274 7.23572C11.9599 5.86538 10.5741 5.01854 9.17915 5.3388C7.78418 5.65906 6.90962 7.0294 7.22372 8.39974C7.53782 9.767 8.92356 10.6169 10.3185 10.2967ZM10.337 10.3767C11.7751 10.0442 12.6774 8.6307 12.354 7.22033C12.0276 5.80687 10.5988 4.93232 9.16068 5.26182C7.72259 5.5944 6.82032 7.00785 7.14366 8.41822C7.47008 9.83167 8.89893 10.7062 10.337 10.3767Z" fill="#B4D3EB"/>
<path fill-rule="evenodd" clip-rule="evenodd" d="M10.329 10.3488C11.7517 10.0224 12.6478 8.62127 12.3244 7.22321C12.0042 5.82516 10.5876 4.95676 9.16495 5.28626C7.74226 5.61268 6.84615 7.01381 7.16948 8.41187C7.48974 9.80992 8.90627 10.6783 10.329 10.3488ZM10.3474 10.4289C11.8163 10.0901 12.7371 8.64898 12.4045 7.20782C12.0719 5.76665 10.6123 4.87054 9.14647 5.20928C7.67759 5.54801 6.75684 6.98918 7.08942 8.43034C7.422 9.87151 8.88164 10.7676 10.3474 10.4289Z" fill="#B4D3EB"/>
<path fill-rule="evenodd" clip-rule="evenodd" d="M10.3412 10.4013C11.7947 10.0656 12.7062 8.63987 12.3798 7.21102C12.0503 5.78525 10.606 4.89838 9.15256 5.23404C7.69908 5.56969 6.78757 6.99546 7.11399 8.42431C7.44349 9.85008 8.88773 10.737 10.3412 10.4013ZM10.3597 10.4814C11.8563 10.1365 12.7986 8.66451 12.4599 7.19255C12.1211 5.72059 10.6338 4.80908 9.13409 5.15397C7.63749 5.49887 6.69519 6.97083 7.03392 8.43971C7.37266 9.91167 8.86002 10.8232 10.3597 10.4783V10.4814Z" fill="#B2D2EB"/>
<path fill-rule="evenodd" clip-rule="evenodd" d="M10.3542 10.4535C11.8385 10.1116 12.7685 8.65508 12.4328 7.19852C12.0972 5.74196 10.6221 4.83969 9.14095 5.1815C7.65667 5.52332 6.72669 6.97988 7.06235 8.43644C7.398 9.89301 8.87304 10.7953 10.3542 10.4535ZM10.3727 10.5335C11.9001 10.1825 12.8578 8.67972 12.5129 7.18004C12.168 5.68037 10.6499 4.75039 9.12247 5.10144C7.59508 5.45249 6.63739 6.95525 6.98228 8.45492C7.32717 9.9546 8.84533 10.8846 10.3727 10.5335Z" fill="#B0D1EA"/>
<path fill-rule="evenodd" clip-rule="evenodd" d="M10.3665 10.5063C11.8785 10.1583 12.8301 8.67094 12.4882 7.18666C12.1464 5.70238 10.6437 4.77856 9.1286 5.12653C7.6166 5.47451 6.66506 6.96186 7.00688 8.44614C7.34869 9.93042 8.85145 10.8542 10.3665 10.5063ZM10.385 10.5863C11.9432 10.2291 12.9194 8.69865 12.5683 7.16818C12.2172 5.63772 10.6683 4.68926 9.11012 5.04955C7.55194 5.40676 6.57576 6.93723 6.92681 8.4677C7.27787 9.99817 8.82681 10.9466 10.385 10.5863Z" fill="#ADCFEA"/>
<path fill-rule="evenodd" clip-rule="evenodd" d="M10.3768 10.5584C11.9196 10.2043 12.8865 8.68923 12.5385 7.17416C12.1906 5.65909 10.657 4.71986 9.11424 5.074C7.57145 5.42813 6.60452 6.9432 6.95249 8.45827C7.30046 9.97335 8.83401 10.9126 10.3768 10.5584ZM10.3953 10.6385C11.9812 10.272 12.9789 8.71387 12.6186 7.15568C12.2614 5.5975 10.6817 4.63056 9.09576 4.99701C7.50986 5.36346 6.51213 6.92165 6.87243 8.47983C7.22964 10.038 8.80938 11.005 10.3953 10.6385Z" fill="#ADCFEA"/>
<path fill-rule="evenodd" clip-rule="evenodd" d="M10.3923 10.6106C11.9658 10.2472 12.9513 8.70444 12.5971 7.16166C12.243 5.61887 10.6786 4.66117 9.10814 5.02146C7.53456 5.38483 6.54915 6.92762 6.90328 8.47041C7.25741 10.0132 8.82176 10.9709 10.3923 10.6106ZM10.4107 10.6907C12.0274 10.3181 13.0406 8.72908 12.6772 7.14318C12.3107 5.55728 10.7064 4.57187 9.08967 4.94448C7.47297 5.31709 6.45985 6.90606 6.82322 8.49196C7.18659 10.0779 8.79404 11.0633 10.4107 10.6907Z" fill="#ACCFE9"/>
<path fill-rule="evenodd" clip-rule="evenodd" d="M10.4058 10.6629C12.0071 10.2934 13.014 8.7198 12.6507 7.14621C12.2873 5.57263 10.6952 4.59646 9.09394 4.96599C7.49264 5.33552 6.48567 6.9091 6.84904 8.48268C7.21241 10.0563 8.80447 11.0324 10.4058 10.6629ZM10.4242 10.743C12.0717 10.3642 13.1033 8.74751 12.7307 7.13082C12.3581 5.51412 10.7229 4.51024 9.07546 4.889C7.42797 5.26777 6.39637 6.88446 6.76898 8.50116C7.14159 10.1179 8.77676 11.1217 10.4242 10.743Z" fill="#A9CDE9"/>
<path fill-rule="evenodd" clip-rule="evenodd" d="M10.4148 10.7185C12.0469 10.3428 13.0693 8.74151 12.7028 7.13713C12.3333 5.53584 10.7135 4.54118 9.08143 4.91687C7.44934 5.29256 6.42698 6.89386 6.79343 8.49823C7.16296 10.0995 8.78273 11.0942 10.4148 10.7185ZM10.4333 10.7986C12.1085 10.4136 13.1617 8.76614 12.7829 7.12173C12.4041 5.47733 10.7382 4.45496 9.06295 4.83989C7.38775 5.22481 6.33459 6.8723 6.71336 8.51671C7.09213 10.1611 8.75809 11.1835 10.4333 10.7986Z" fill="#A8CCE8"/>
<path fill-rule="evenodd" clip-rule="evenodd" d="M10.4274 10.7708C12.0872 10.389 13.1311 8.75688 12.7554 7.12479C12.3797 5.4927 10.7292 4.48265 9.06936 4.8645C7.40955 5.24635 6.36563 6.87844 6.74132 8.51053C7.11701 10.1426 8.76758 11.1527 10.4274 10.7708ZM10.4459 10.8509C12.1519 10.4598 13.2204 8.78152 12.8355 7.10939C12.4506 5.43419 10.7538 4.39643 9.0478 4.78751C7.34181 5.1786 6.27325 6.85688 6.65818 8.529C7.0431 10.2042 8.73986 11.242 10.4459 10.8509Z" fill="#A5CBE8"/>
<path fill-rule="evenodd" clip-rule="evenodd" d="M10.4367 10.8231C12.1273 10.4351 13.1897 8.77223 12.8079 7.11243C12.426 5.45263 10.7446 4.42102 9.05405 4.81211C7.36345 5.20011 6.30105 6.863 6.6829 8.5228C7.06474 10.1826 8.74611 11.2142 10.4367 10.8231ZM10.4552 10.9032C12.192 10.5029 13.279 8.79995 12.8879 7.09395C12.4968 5.39104 10.7724 4.33172 9.03557 4.73204C7.29878 5.13237 6.21175 6.83528 6.60283 8.54128C6.99392 10.2442 8.71839 11.3035 10.4552 10.9032Z" fill="#A5CBE8"/>
<path fill-rule="evenodd" clip-rule="evenodd" d="M10.4505 10.8755C12.1719 10.4782 13.2497 8.78761 12.8617 7.10009C12.4737 5.40949 10.7615 4.36249 9.04323 4.75973C7.32184 5.15698 6.24404 6.84758 6.63205 8.5351C7.02005 10.2257 8.73221 11.2727 10.4505 10.8755ZM10.469 10.9555C12.2335 10.549 13.3421 8.81532 12.9418 7.08161C12.5414 5.3479 10.7893 4.27319 9.02475 4.67967C7.26025 5.08615 6.15166 6.81986 6.55198 8.55357C6.95231 10.2873 8.70449 11.362 10.469 10.9555Z" fill="#A4CAE7"/>
<path fill-rule="evenodd" clip-rule="evenodd" d="M10.4619 10.9281C12.211 10.5247 13.3103 8.80639 12.9162 7.08807C12.522 5.36976 10.7821 4.30428 9.02993 4.70769C7.28082 5.11109 6.18147 6.8294 6.57564 8.54772C6.9698 10.266 8.70967 11.3315 10.4619 10.9281ZM10.4803 11.0082C12.2756 10.5955 13.3996 8.83102 12.9962 7.0696C12.5897 5.30817 10.8068 4.21498 9.01145 4.62762C7.21616 5.04026 6.09217 6.80477 6.49557 8.56619C6.90205 10.3276 8.68504 11.4208 10.4803 11.0082Z" fill="#A1C9E7"/>
<path fill-rule="evenodd" clip-rule="evenodd" d="M10.4721 10.9804C12.252 10.5709 13.3699 8.82176 12.9665 7.07573C12.5631 5.3297 10.7955 4.24267 9.01557 4.65223C7.23567 5.06179 6.11784 6.8109 6.52125 8.55693C6.92465 10.303 8.69223 11.39 10.4721 10.9804ZM10.4906 11.0605C12.3136 10.6417 13.4592 8.84947 13.0465 7.05725C12.6339 5.26503 10.8201 4.15336 8.9971 4.57524C7.17408 4.99404 6.02854 6.78626 6.44118 8.57848C6.85382 10.3707 8.6676 11.4824 10.4906 11.0605Z" fill="#A0C8E6"/>
<path fill-rule="evenodd" clip-rule="evenodd" d="M10.4885 11.0326C12.2992 10.6169 13.4325 8.83697 13.0229 7.06322C12.6133 5.2864 10.815 4.18397 9.00734 4.59969C7.19665 5.01541 6.06342 6.79532 6.4699 8.57214C6.87947 10.349 8.67784 11.4514 10.4855 11.0357L10.4885 11.0326ZM10.507 11.1127C12.3608 10.6846 13.5248 8.86468 13.106 7.04475C12.6872 5.22481 10.8458 4.09467 8.99195 4.52271C7.13814 4.95075 5.97412 6.77068 6.39292 8.59061C6.81172 10.4105 8.65321 11.5407 10.507 11.1127Z" fill="#9DC7E6"/>
<path fill-rule="evenodd" clip-rule="evenodd" d="M10.501 11.0849C12.3394 10.663 13.4942 8.85542 13.0785 7.0478C12.6627 5.24327 10.8336 4.12236 8.99515 4.54424C7.15674 4.96612 6.00196 6.77374 6.41768 8.58135C6.8334 10.3859 8.66257 11.5068 10.501 11.0849ZM10.5195 11.165C12.4041 10.7308 13.5835 8.88006 13.1585 7.03241C12.7336 5.18168 10.8613 4.03614 8.97667 4.47033C7.09207 4.90453 5.91265 6.75526 6.33761 8.60291C6.76257 10.4536 8.63486 11.5992 10.5195 11.165Z" fill="#9DC7E6"/>
<path fill-rule="evenodd" clip-rule="evenodd" d="M10.5102 11.1405C12.3794 10.7094 13.5526 8.87403 13.1307 7.0387C12.7089 5.20337 10.852 4.06398 8.98276 4.4951C7.11356 4.92622 5.9403 6.76155 6.36218 8.59688C6.78406 10.4322 8.64095 11.5716 10.5102 11.1405ZM10.5286 11.2205C12.4409 10.7802 13.6419 8.90174 13.2108 7.0233C12.7797 5.14486 10.8766 3.97776 8.96429 4.41812C7.05197 4.85847 5.851 6.73692 6.28212 8.61536C6.71324 10.4938 8.61631 11.6609 10.5286 11.2205Z" fill="#9BC6E5"/>
<path fill-rule="evenodd" clip-rule="evenodd" d="M10.5237 11.1928C12.4237 10.7555 13.6123 8.88939 13.1843 7.02635C12.7562 5.1633 10.8686 4.00544 8.96856 4.44272C7.06856 4.87999 5.87991 6.74612 6.30794 8.60917C6.73598 10.4722 8.62366 11.6301 10.5237 11.1928ZM10.5421 11.2729C12.4853 10.8263 13.7047 8.91711 13.2643 7.00787C12.824 5.10171 10.8932 3.91614 8.95008 4.36265C7.00697 4.80917 5.78752 6.71841 6.22788 8.62764C6.66824 10.5338 8.59903 11.7194 10.5421 11.2729Z" fill="#99C5E5"/>
<path fill-rule="evenodd" clip-rule="evenodd" d="M10.5365 11.2451C12.4642 10.8017 13.6745 8.90785 13.2403 7.01401C12.803 5.12017 10.8876 3.94691 8.95987 4.39034C7.03215 4.83378 5.82194 6.72762 6.25614 8.62146C6.69342 10.5153 8.60881 11.6886 10.5365 11.2451ZM10.555 11.3252C12.5289 10.8725 13.7668 8.93248 13.3203 6.99553C12.8738 5.05858 10.9153 3.85761 8.94139 4.31028C6.96749 4.76295 5.72956 6.70299 6.17608 8.63994C6.62259 10.5769 8.5811 11.7779 10.555 11.3252Z" fill="#97C3E4"/>
<path fill-rule="evenodd" clip-rule="evenodd" d="M10.5493 11.2973C12.5078 10.8477 13.7365 8.92305 13.293 7.0015C12.8496 5.07994 10.9034 3.88513 8.94798 4.3378C6.98947 4.7874 5.76079 6.71203 6.20422 8.63359C6.64766 10.5551 8.59385 11.75 10.5493 11.2973ZM10.5678 11.3773C12.5694 10.9154 13.8258 8.94769 13.3731 6.98302C12.9204 5.01835 10.9311 3.79582 8.9295 4.25774C6.92789 4.71965 5.67148 6.68432 6.12416 8.65206C6.57683 10.6167 8.56613 11.8393 10.5678 11.3773Z" fill="#97C3E4"/>
<path fill-rule="evenodd" clip-rule="evenodd" d="M10.5617 11.3496C12.5479 10.8908 13.7951 8.93842 13.3486 6.98915C12.899 5.03681 10.9251 3.8266 8.93575 4.28543C6.94953 4.74426 5.70236 6.69661 6.14888 8.64588C6.59847 10.5982 8.57238 11.8084 10.5617 11.3496ZM10.5802 11.4297C12.6126 10.9616 13.8874 8.96614 13.4286 6.97068C12.9698 4.97522 10.9497 3.73729 8.91727 4.20536C6.88486 4.67343 5.60998 6.6689 6.06881 8.66436C6.52765 10.6598 8.54774 11.8977 10.5802 11.4297Z" fill="#95C3E4"/>
<path fill-rule="evenodd" clip-rule="evenodd" d="M10.572 11.4023C12.589 10.9373 13.8546 8.9572 13.3989 6.97714C12.9431 4.99708 10.9384 3.76839 8.92139 4.23338C6.90438 4.69837 5.63874 6.67844 6.09449 8.6585C6.55024 10.6386 8.55494 11.8673 10.572 11.4023ZM10.5904 11.4823C12.6506 11.0081 13.947 8.98184 13.4789 6.95866C13.0139 4.93549 10.963 3.67909 8.90292 4.15332C6.84279 4.62755 5.54635 6.6538 6.01443 8.67698C6.47942 10.7002 8.53031 11.9566 10.5904 11.4823Z" fill="#93C1E3"/>
<path fill-rule="evenodd" clip-rule="evenodd" d="M10.587 11.4546C12.6348 10.9834 13.9189 8.97257 13.457 6.96171C12.9951 4.95086 10.9596 3.70369 8.91483 4.17484C6.86702 4.64599 5.58291 6.65685 6.04482 8.66771C6.50673 10.6786 8.54223 11.9257 10.587 11.4546ZM10.6054 11.5346C12.6964 11.0543 14.0082 8.99721 13.537 6.94632C13.0659 4.89235 10.9873 3.61747 8.89328 4.10094C6.80236 4.58133 5.49053 6.63838 5.96168 8.68927C6.43283 10.7432 8.51143 12.0181 10.6054 11.5346Z" fill="#91C0E3"/>
<path fill-rule="evenodd" clip-rule="evenodd" d="M10.5973 11.5067C12.6728 11.0294 13.9754 8.98778 13.5073 6.94921C13.0392 4.91064 10.973 3.645 8.89743 4.12231C6.8219 4.59962 5.51931 6.64127 5.98738 8.67984C6.45545 10.7184 8.52174 11.9841 10.5973 11.5067ZM10.6157 11.5868C12.7375 11.0972 14.0678 9.0155 13.5874 6.93381C13.107 4.85213 11.0007 3.55878 8.87895 4.0484C6.75723 4.53803 5.42693 6.61971 5.90732 8.7014C6.3877 10.7831 8.49402 12.0764 10.6157 11.5868Z" fill="#8EBFE2"/>
<path fill-rule="evenodd" clip-rule="evenodd" d="M10.61 11.5622C12.7163 11.0787 14.0374 9.00932 13.5631 6.93995C13.0858 4.87366 10.9949 3.58955 8.88858 4.07301C6.78226 4.55648 5.4612 6.62585 5.93542 8.69522C6.41273 10.7615 8.50366 12.0456 10.61 11.5622ZM10.6285 11.6422C12.7779 11.1464 14.1297 9.03395 13.6432 6.92147C13.1567 4.80899 11.0195 3.50024 8.87011 3.99603C6.72068 4.49181 5.36881 6.60429 5.85536 8.71677C6.34191 10.8293 8.47902 12.138 10.6285 11.6422Z" fill="#8EBFE2"/>
<path fill-rule="evenodd" clip-rule="evenodd" d="M10.6225 11.6148C12.7597 11.1221 14.0992 9.025 13.6157 6.92792C13.1323 4.83083 11.0105 3.52824 8.87343 4.02095C6.73632 4.51365 5.39677 6.61074 5.88024 8.70782C6.36371 10.8049 8.48543 12.1075 10.6225 11.6148ZM10.641 11.6948C12.8212 11.1929 14.1885 9.04963 13.6958 6.90944C13.2031 4.76924 11.0352 3.43894 8.85495 3.94088C6.67473 4.44283 5.30747 6.5861 5.80018 8.72629C6.29288 10.8665 8.46079 12.1968 10.641 11.6948Z" fill="#8DBEE2"/>
<path fill-rule="evenodd" clip-rule="evenodd" d="M10.6354 11.6671C12.8002 11.1682 14.1583 9.04037 13.6717 6.91557C13.1821 4.79078 11.0296 3.46971 8.86474 3.96857C6.69991 4.46744 5.34189 6.59531 5.82844 8.72011C6.31806 10.8449 8.47057 12.166 10.6354 11.6671ZM10.6539 11.7472C12.8649 11.2391 14.2506 9.06809 13.7518 6.8971C13.2529 4.72611 11.0573 3.38041 8.84626 3.88851C6.63524 4.39661 5.24951 6.5676 5.74837 8.73859C6.24724 10.9096 8.44286 12.2553 10.6539 11.7472Z" fill="#8ABDE1"/>
<path fill-rule="evenodd" clip-rule="evenodd" d="M10.6456 11.7193C12.8412 11.2143 14.2177 9.05866 13.7219 6.90307C13.2261 4.74748 11.0428 3.41102 8.85026 3.91604C6.65464 4.42106 5.27814 6.57665 5.77393 8.73224C6.26971 10.8878 8.45302 12.2243 10.6456 11.7193ZM10.664 11.7993C12.9028 11.2851 14.3101 9.0833 13.802 6.8846C13.2969 4.68589 11.0705 3.32171 8.83178 3.83597C6.59305 4.35024 5.18576 6.55202 5.69386 8.75072C6.19889 10.9494 8.4253 12.3136 10.664 11.7993Z" fill="#88BCE1"/>
<path fill-rule="evenodd" clip-rule="evenodd" d="M10.657 11.7719C12.8804 11.2607 14.2784 9.07436 13.7765 6.89106C13.2745 4.70775 11.0635 3.34973 8.83708 3.86399C6.61375 4.37518 5.21569 6.56156 5.71764 8.74487C6.21958 10.9282 8.4306 12.2862 10.657 11.7719ZM10.6755 11.852C12.945 11.3285 14.3677 9.099 13.8565 6.87258C13.3423 4.64617 11.0881 3.26351 8.81861 3.78393C6.54908 4.30743 5.12639 6.53693 5.63757 8.76334C6.15183 10.9898 8.40597 12.3724 10.6755 11.852Z" fill="#86BBE0"/>
<path fill-rule="evenodd" clip-rule="evenodd" d="M10.6674 11.8243C12.9216 11.3038 14.335 9.08973 13.8269 6.87563C13.3188 4.66153 11.077 3.28811 8.82288 3.80853C6.56875 4.32587 5.15529 6.54305 5.6634 8.75715C6.1715 10.9713 8.41332 12.3447 10.6674 11.8243ZM10.6859 11.9043C12.9862 11.3747 14.4274 9.11744 13.907 6.86023C13.3866 4.60302 11.1016 3.20189 8.8044 3.73155C6.50408 4.26121 5.06291 6.51842 5.58333 8.77563C6.10375 11.0328 8.38868 12.434 10.6859 11.9043Z" fill="#86BBE0"/>
<path fill-rule="evenodd" clip-rule="evenodd" d="M10.6797 11.8764C12.9646 11.3498 14.3966 9.10802 13.8823 6.86313C13.365 4.62131 11.0954 3.22942 8.81049 3.756C6.52557 4.28258 5.09364 6.52439 5.61098 8.76929C6.12832 11.0111 8.39785 12.403 10.6828 11.8764H10.6797ZM10.6982 11.9565C13.0262 11.4207 14.4889 9.13266 13.9624 6.84773C13.4358 4.5628 11.1231 3.14319 8.79202 3.67901C6.46398 4.21483 5.00126 6.50284 5.52784 8.78776C6.05442 11.0727 8.36706 12.4923 10.6982 11.9565Z" fill="#83BAE0"/>
<path fill-rule="evenodd" clip-rule="evenodd" d="M10.6926 11.9289C13.0052 11.3961 14.4587 9.12354 13.9352 6.85093C13.4117 4.57832 11.1114 3.16795 8.79876 3.70069C6.48612 4.23343 5.03264 6.50604 5.55614 8.77864C6.07964 11.0513 8.37996 12.4616 10.6926 11.9289ZM10.7111 12.009C13.0699 11.467 14.548 9.14817 14.0153 6.83245C13.4826 4.51673 11.1391 3.07865 8.78028 3.6237C6.42145 4.16568 4.94333 6.48448 5.47607 8.8002C6.00881 11.1159 8.35225 12.5509 10.7111 12.009Z" fill="#82B9DF"/>
<path fill-rule="evenodd" clip-rule="evenodd" d="M10.7053 11.984C13.0487 11.4451 14.5176 9.14168 13.991 6.84136C13.4614 4.54103 11.1334 3.11219 8.78992 3.65108C6.44648 4.18998 4.9776 6.49338 5.50418 8.79371C6.03384 11.094 8.36188 12.5229 10.7053 11.984ZM10.7238 12.064C13.1103 11.5159 14.61 9.16939 14.0711 6.82288C13.5322 4.47945 11.158 3.02288 8.77144 3.5741C6.38489 4.12223 4.88522 6.46875 5.42412 8.81526C5.96301 11.1618 8.33724 12.6153 10.7238 12.064Z" fill="#7FB7DF"/>
<path fill-rule="evenodd" clip-rule="evenodd" d="M10.7188 12.0363C13.0931 11.4913 14.5804 9.15705 14.0446 6.82902C13.5088 4.4979 11.1499 3.05365 8.77571 3.59871C6.40148 4.14377 4.91413 6.47796 5.44994 8.806C5.98576 11.1371 8.34459 12.5814 10.7188 12.0363ZM10.7373 12.1164C13.1546 11.559 14.6728 9.18477 14.1247 6.81054C13.5796 4.43631 11.1746 2.96435 8.75724 3.52172C6.33989 4.0791 4.82174 6.45333 5.36988 8.82756C5.91494 11.2018 8.31996 12.6737 10.7373 12.1164Z" fill="#7FB7DF"/>
<path fill-rule="evenodd" clip-rule="evenodd" d="M10.7307 12.0889C13.1327 11.5347 14.6416 9.17582 14.0996 6.81699C13.5576 4.45816 11.168 2.99544 8.76607 3.54665C6.36413 4.10095 4.85522 6.45978 5.39719 8.81861C5.93917 11.1774 8.3288 12.6402 10.7307 12.0889ZM10.7492 12.169C13.1974 11.6055 14.7309 9.20046 14.1797 6.79851C13.6254 4.39657 11.1957 2.90613 8.7476 3.46659C6.29946 4.03012 4.76591 6.43514 5.31713 8.83709C5.87142 11.239 8.30108 12.7295 10.7492 12.169Z" fill="#7DB7DE"/>
<path fill-rule="evenodd" clip-rule="evenodd" d="M10.744 12.1413C13.1767 11.5808 14.7041 9.19119 14.1529 6.80464C13.6048 4.41501 11.1843 2.93382 8.75467 3.49427C6.32194 4.05472 4.79455 6.44435 5.34576 8.8309C5.8939 11.2205 8.31432 12.7017 10.744 12.1413ZM10.7625 12.2213C13.2383 11.6516 14.7934 9.2189 14.233 6.78616C13.6725 4.35343 11.212 2.84451 8.73312 3.4142C6.25727 3.9839 4.70216 6.41663 5.26262 8.84937C5.82307 11.2821 8.28352 12.791 10.7625 12.2213Z" fill="#7BB5DE"/>
<path fill-rule="evenodd" clip-rule="evenodd" d="M10.7533 12.1934C13.2168 11.6268 14.7596 9.2064 14.2053 6.78906C13.648 4.37172 11.2029 2.87204 8.73936 3.43866C6.27583 4.00527 4.73304 6.42569 5.28734 8.84303C5.84471 11.2604 8.28977 12.76 10.7533 12.1934ZM10.7718 12.2735C13.2784 11.6976 14.852 9.23411 14.2854 6.77366C13.7188 4.31321 11.2275 2.78582 8.72089 3.36167C6.21424 3.93752 4.64066 6.40105 5.20727 8.8615C5.77389 11.322 8.26513 12.8493 10.7718 12.2735Z" fill="#79B4DD"/>
<path fill-rule="evenodd" clip-rule="evenodd" d="M10.7663 12.2458C13.2576 11.673 14.8219 9.22485 14.2584 6.77672C13.6948 4.33166 11.219 2.81351 8.72775 3.38628C6.2365 3.95905 4.67216 6.40719 5.23569 8.85532C5.79923 11.3004 8.27508 12.8185 10.7663 12.2458ZM10.7848 12.3258C13.3222 11.7407 14.9112 9.24949 14.3384 6.76132C13.7657 4.27007 11.2436 2.72729 8.70927 3.3093C6.17184 3.89439 4.58286 6.38563 5.15563 8.8738C5.7284 11.365 8.25044 12.9078 10.7848 12.3258Z" fill="#76B3DD"/>
<path fill-rule="evenodd" clip-rule="evenodd" d="M10.7821 12.2982C13.3042 11.7193 14.887 9.24037 14.3173 6.76452C13.7476 4.28867 11.2409 2.75204 8.71891 3.33405C6.19687 3.91298 4.61405 6.39191 5.18374 8.86776C5.75343 11.3436 8.26008 12.8802 10.7821 12.2982ZM10.8006 12.3783C13.3657 11.787 14.9763 9.26808 14.3973 6.74604C13.8184 4.224 11.2687 2.66274 8.70043 3.25399C6.13528 3.84523 4.52474 6.3642 5.10367 8.88624C5.6826 11.4052 8.23236 12.9695 10.8006 12.3783Z" fill="#76B3DD"/>
<path fill-rule="evenodd" clip-rule="evenodd" d="M10.7924 12.3509C13.3422 11.7627 14.9435 9.25607 14.3676 6.75251C13.7918 4.24894 11.2543 2.69384 8.70458 3.282C6.15482 3.87017 4.55353 6.37682 5.12938 8.88038C5.70523 11.3839 8.24267 12.9391 10.7924 12.3509ZM10.8109 12.4309C13.4068 11.8335 15.0359 9.28378 14.4477 6.73403C13.8626 4.18427 11.2821 2.60453 8.6861 3.20194C6.09016 3.79935 4.46115 6.3491 5.04931 8.89886C5.6344 11.4486 8.21495 13.0284 10.8109 12.4309Z" fill="#74B2DC"/>
<path fill-rule="evenodd" clip-rule="evenodd" d="M10.8042 12.406C13.3847 11.8117 15.0045 9.27729 14.4225 6.74293C13.8405 4.20857 11.2753 2.63807 8.69479 3.22932C6.11424 3.82365 4.49447 6.35801 5.07648 8.89236C5.65849 11.4267 8.22364 12.9972 10.8042 12.406ZM10.8227 12.486C13.4494 11.8825 15.0938 9.30193 14.5026 6.72446C13.9082 4.14699 11.3 2.54877 8.67631 3.15233C6.05265 3.7559 4.40517 6.33645 4.99641 8.91392C5.59074 11.4914 8.19901 13.0896 10.8227 12.486Z" fill="#71B1DC"/>
<path fill-rule="evenodd" clip-rule="evenodd" d="M10.8177 12.4586C13.429 11.8581 15.0673 9.29298 14.476 6.73091C13.8848 4.16884 11.2919 2.57678 8.68059 3.17727C6.06924 3.77775 4.43099 6.34291 5.02224 8.90498C5.61349 11.4671 8.20636 13.0591 10.8177 12.4586ZM10.8362 12.5387C13.4906 11.929 15.1566 9.3207 14.5561 6.71244C13.9556 4.10725 11.3166 2.48748 8.66211 3.10028C6.00765 3.71001 4.34169 6.32135 4.94218 8.92653C5.54266 11.5317 8.18172 13.1515 10.8362 12.5387Z" fill="#70B0DB"/>
<path fill-rule="evenodd" clip-rule="evenodd" d="M10.827 12.511C13.4661 11.9043 15.1228 9.30836 14.5285 6.71857C13.9311 4.1257 11.3074 2.51825 8.66835 3.12489C6.02929 3.73154 4.37257 6.32748 4.9669 8.91727C5.56122 11.5071 8.18796 13.1176 10.827 12.511ZM10.8455 12.591C13.5307 11.9721 15.2152 9.33607 14.6085 6.70009C14.0019 4.06412 11.3351 2.42895 8.64988 3.04791C5.96463 3.66687 4.28019 6.30285 4.88683 8.93883C5.49348 11.5748 8.16025 13.21 10.8455 12.591Z" fill="#6DAFDB"/>
<path fill-rule="evenodd" clip-rule="evenodd" d="M10.8393 12.5631C13.5092 11.9472 15.1844 9.32664 14.5808 6.70298C13.9772 4.08239 11.3228 2.45646 8.65601 3.06927C5.98615 3.68515 4.31095 6.30573 4.91452 8.92939C5.51808 11.55 8.17254 13.1759 10.8424 12.5631H10.8393ZM10.8578 12.6432C13.5708 12.018 15.2737 9.35127 14.6609 6.68758C14.0481 4.02389 11.3505 2.37024 8.63445 2.99228C5.92149 3.6174 4.21857 6.28418 4.83137 8.94787C5.44418 11.6116 8.14175 13.2652 10.8578 12.6432Z" fill="#6DAFDB"/>
<path fill-rule="evenodd" clip-rule="evenodd" d="M10.8486 12.6154C13.5493 11.9934 15.243 9.342 14.6332 6.69063C14.0235 4.03925 11.3413 2.39484 8.6407 3.01688C5.94005 3.63893 4.24637 6.2903 4.8561 8.94168C5.46582 11.5931 8.14799 13.2375 10.8486 12.6154ZM10.8671 12.6955C13.6109 12.0642 15.3323 9.36664 14.7133 6.67523C14.0943 3.98074 11.366 2.30862 8.62222 2.9399C5.87846 3.57118 4.15707 6.26875 4.77603 8.96016C5.39499 11.6546 8.12335 13.3268 10.8671 12.6955Z" fill="#6AAEDA"/>
<path fill-rule="evenodd" clip-rule="evenodd" d="M10.8626 12.6676C13.591 12.0394 15.3031 9.35722 14.6872 6.67812C14.0714 3.99903 11.3584 2.33615 8.63003 2.96435C5.90167 3.59255 4.18951 6.27472 4.8054 8.95381C5.42128 11.6329 8.13425 13.2958 10.8626 12.6676ZM10.8811 12.7477C13.6556 12.1102 15.3955 9.38493 14.7673 6.66273C14.1391 3.94052 11.383 2.24993 8.61156 2.88737C5.837 3.5248 4.09713 6.25009 4.72533 8.97229C5.35353 11.6945 8.10961 13.3851 10.8811 12.7477Z" fill="#68ADDA"/>
<path fill-rule="evenodd" clip-rule="evenodd" d="M10.8739 12.7201C13.6331 12.0857 15.3637 9.37582 14.7417 6.66593C14.1196 3.95605 11.3759 2.27777 8.6167 2.91213C5.85755 3.54649 4.12692 6.25637 4.74896 8.96626C5.371 11.6761 8.11476 13.3544 10.8739 12.7201ZM10.8924 12.8001C13.6947 12.1535 15.4561 9.40045 14.8217 6.64746C14.1874 3.89446 11.4036 2.18846 8.59823 2.83206C5.79596 3.47874 4.03761 6.23174 4.66889 8.98473C5.30325 11.7377 8.08704 13.4437 10.8924 12.8001Z" fill="#65ACD9"/>
<path fill-rule="evenodd" clip-rule="evenodd" d="M10.8878 12.7727C13.6746 12.1322 15.4268 9.39151 14.7955 6.65391C14.1643 3.91631 11.3928 2.21648 8.60591 2.86007C5.81904 3.50059 4.06686 6.24127 4.69814 8.97887C5.32942 11.7165 8.10089 13.4163 10.8878 12.7727ZM10.9062 12.8528C13.7393 12.1999 15.5161 9.41615 14.8756 6.63544C14.2351 3.85472 11.4205 2.12717 8.58744 2.78001C5.75438 3.43284 3.97755 6.21664 4.61807 8.99735C5.25859 11.7781 8.07317 13.5056 10.9062 12.8528Z" fill="#63ABD9"/>
<path fill-rule="evenodd" clip-rule="evenodd" d="M10.9002 12.828C13.7178 12.1782 15.4854 9.40982 14.8511 6.6445C14.2136 3.87919 11.4144 2.16087 8.59676 2.81063C5.7791 3.46039 4.01151 6.22878 4.64587 8.99409C5.28331 11.7594 8.0825 13.4777 10.9002 12.828ZM10.9186 12.908C13.7825 12.249 15.5778 9.43753 14.9311 6.62602C14.2844 3.81452 11.4391 2.07157 8.5752 2.73056C5.71135 3.38956 3.91605 6.20106 4.56273 9.01257C5.2094 11.8241 8.05478 13.567 10.9186 12.908Z" fill="#63ABD9"/>
<path fill-rule="evenodd" clip-rule="evenodd" d="M10.9104 12.8801C13.7589 12.2242 15.545 9.42811 14.9014 6.632C14.2578 3.83589 11.4278 2.10218 8.57933 2.75502C5.73087 3.41093 3.94481 6.20704 4.5884 9.00315C5.232 11.7993 8.06198 13.533 10.9104 12.8801ZM10.9289 12.9602C13.8205 12.295 15.6373 9.45274 14.9814 6.61352C14.3286 3.7743 11.4524 2.01288 8.56085 2.67803C5.66928 3.34318 3.85242 6.18548 4.50834 9.0247C5.16117 11.8639 8.03735 13.6253 10.9289 12.9602Z" fill="#60A9D8"/>
<path fill-rule="evenodd" clip-rule="evenodd" d="M10.9258 12.9325C13.802 12.2704 15.6096 9.44348 14.9598 6.61965C14.3101 3.79583 11.4493 2.04056 8.57311 2.70264C5.69693 3.36471 3.88931 6.19161 4.53907 9.01852C5.18883 11.8423 8.0496 13.5976 10.9258 12.9355V12.9325ZM10.9443 13.0125C13.8666 12.3412 15.6989 9.46811 15.0399 6.60117C14.3809 3.73116 11.477 1.95126 8.55463 2.62565C5.63226 3.29696 3.80001 6.17006 4.45901 9.03699C5.118 11.907 8.02189 13.6869 10.9443 13.0125Z" fill="#5EA9D8"/>
<path fill-rule="evenodd" clip-rule="evenodd" d="M10.9391 12.9851C13.8461 12.3169 15.6691 9.45918 15.0132 6.60456C14.3573 3.74994 11.4657 1.97928 8.55875 2.64751C5.65178 3.31574 3.82877 6.17344 4.48468 9.02806C5.1406 11.8827 8.03217 13.6533 10.9391 12.9851ZM10.9576 13.0652C13.9077 12.3846 15.7615 9.48689 15.0933 6.58916C14.425 3.69143 11.4934 1.89305 8.54027 2.5736C5.59019 3.25415 3.73638 6.15188 4.40462 9.04961C5.07285 11.9473 8.00445 13.7457 10.9576 13.0652Z" fill="#5BA7D7"/>
<path fill-rule="evenodd" clip-rule="evenodd" d="M10.9485 13.0373C13.8862 12.3598 15.7277 9.47745 15.0656 6.59204C14.4005 3.70971 11.4843 1.92057 8.54652 2.59496C5.60875 3.27243 3.76726 6.15477 4.42934 9.04018C5.09141 11.9225 8.0107 13.7116 10.9485 13.0373ZM10.9669 13.1173C13.9478 12.4306 15.8201 9.50209 15.1457 6.57665C14.4713 3.6512 11.5089 1.83435 8.52804 2.51798C5.54717 3.20469 3.67488 6.13321 4.34927 9.05865C5.02367 11.9841 7.98606 13.801 10.9669 13.1173Z" fill="#5BA7D7"/>
<path fill-rule="evenodd" clip-rule="evenodd" d="M10.9615 13.0897C13.927 12.4061 15.79 9.49297 15.1187 6.57984C14.4474 3.66672 11.5004 1.8591 8.5349 2.54273C5.56943 3.22636 3.70638 6.13949 4.37769 9.05261C5.04901 11.9657 7.99601 13.7734 10.9615 13.0897ZM10.98 13.1698C13.9916 12.4769 15.8793 9.51761 15.1988 6.56137C14.5182 3.60513 11.525 1.7698 8.51643 2.46267C5.50476 3.15553 3.61708 6.11485 4.29763 9.07109C4.97818 12.0273 7.97137 13.8627 10.98 13.1698Z" fill="#59A6D7"/>
<path fill-rule="evenodd" clip-rule="evenodd" d="M10.9736 13.1419C13.9699 12.4521 15.8483 9.50818 15.1739 6.56734C14.4965 3.6265 11.5187 1.80041 8.5224 2.4902C5.52613 3.17998 3.64769 6.1239 4.32208 9.06475C4.99955 12.0056 7.97734 13.8317 10.9736 13.1419ZM10.9921 13.222C14.0315 12.5229 15.9407 9.5359 15.254 6.54886C14.5673 3.56491 11.5464 1.7111 8.50392 2.41013C5.46454 3.10916 3.5553 6.09619 4.24201 9.08322C4.92872 12.0672 7.94963 13.921 10.9921 13.222Z" fill="#55A5D6"/>
<path fill-rule="evenodd" clip-rule="evenodd" d="M10.984 13.1942C14.0111 12.4983 15.908 9.52356 15.2244 6.555C14.5408 3.58336 11.5322 1.74187 8.50819 2.43782C5.48113 3.13377 3.58421 6.10849 4.26784 9.07704C4.95147 12.0487 7.96006 13.8902 10.984 13.1942ZM11.0025 13.2743C14.0727 12.5691 16.0004 9.55127 15.3045 6.53652C14.6116 3.52178 11.5599 1.65257 8.48972 2.35776C5.41954 3.06294 3.49183 6.08077 4.18777 9.09552C4.88064 12.1103 7.93234 13.9795 11.0025 13.2743Z" fill="#52A4D5"/>
<path fill-rule="evenodd" clip-rule="evenodd" d="M10.999 13.2498C14.0538 12.5477 15.9723 9.54526 15.2825 6.54591C14.5927 3.54656 11.5564 1.68351 8.50164 2.3887C5.44685 3.0908 3.52838 6.09323 4.21817 9.09258C4.90796 12.0919 7.94426 13.955 11.0021 13.2498H10.999ZM11.0175 13.3299C14.1185 12.6154 16.0616 9.56989 15.3626 6.52743C14.6635 3.48497 11.5811 1.59421 8.48008 2.30863C5.37911 3.02306 3.436 6.0686 4.13502 9.11106C4.83713 12.1535 7.91655 14.0443 11.0175 13.3299Z" fill="#50A3D5"/>
<path fill-rule="evenodd" clip-rule="evenodd" d="M11.0129 13.3021C14.0984 12.5908 16.0323 9.56063 15.3364 6.53357C14.6404 3.50342 11.5733 1.62498 8.48774 2.33632C5.40216 3.04767 3.46829 6.07781 4.16424 9.10488C4.86019 12.135 7.92728 14.0135 11.0129 13.3021ZM11.0313 13.3822C14.16 12.6616 16.1247 9.58835 15.4164 6.51509C14.7082 3.44183 11.5979 1.53568 8.46926 2.25626C5.34058 2.97684 3.37591 6.0501 4.08417 9.12336C4.79244 12.1966 7.90265 14.1028 11.0313 13.3822Z" fill="#50A3D5"/>
<path fill-rule="evenodd" clip-rule="evenodd" d="M11.0221 13.3548C14.1354 12.6373 16.0908 9.57633 15.3887 6.51847C14.6835 3.46061 11.5887 1.5637 8.47538 2.27812C5.3621 2.99562 3.40667 6.05656 4.10877 9.11442C4.81396 12.1723 7.90877 14.0692 11.0221 13.3548ZM11.0405 13.4348C14.2 12.7081 16.1832 9.60405 15.4687 6.50308C14.7543 3.40211 11.6164 1.47747 8.45691 2.20421C5.29743 2.93096 3.31428 6.03501 4.02871 9.13598C4.74313 12.2369 7.88106 14.1616 11.0405 13.4348Z" fill="#4CA2D4"/>
<path fill-rule="evenodd" clip-rule="evenodd" d="M11.0346 13.4071C14.1787 12.6834 16.1526 9.59478 15.4413 6.50613C14.7299 3.42055 11.6043 1.50208 8.46023 2.22574C5.31615 2.9494 3.34224 6.03806 4.05359 9.12671C4.76493 12.2123 7.89054 14.1308 11.0346 13.4071ZM11.0531 13.4872C14.2434 12.7543 16.2419 9.61942 15.5213 6.49073C14.8007 3.35896 11.632 1.41585 8.44176 2.15183C5.25148 2.88473 3.25294 6.01958 3.97352 9.14826C4.69411 12.28 7.86283 14.2231 11.0531 13.4872Z" fill="#4AA1D4"/>
<path fill-rule="evenodd" clip-rule="evenodd" d="M11.0469 13.4594C14.2217 12.7296 16.211 9.61014 15.4966 6.49377C14.7791 3.37741 11.6258 1.44353 8.45092 2.17335C5.27604 2.90318 3.28674 6.02262 4.00117 9.13899C4.71867 12.2554 7.87199 14.1892 11.0469 13.4594ZM11.0653 13.5395C14.2833 12.7973 16.3034 9.63786 15.5767 6.4753C14.8499 3.31582 11.6504 1.35423 8.43245 2.09637C5.21138 2.83543 3.19128 5.99799 3.91802 9.15747C4.64476 12.3169 7.84428 14.2785 11.0623 13.5364L11.0653 13.5395Z" fill="#46A0D3"/>
<path fill-rule="evenodd" clip-rule="evenodd" d="M11.0568 13.5117C14.2594 12.7757 16.2703 9.6255 15.5466 6.48142C14.823 3.33734 11.6388 1.38499 8.43625 2.12097C5.23365 2.86003 3.2228 6.00719 3.94646 9.15127C4.67012 12.2954 7.85424 14.2477 11.0568 13.5117ZM11.0753 13.5918C14.3241 12.8435 16.3627 9.65322 15.6267 6.46294C14.8938 3.27267 11.6635 1.29568 8.41469 2.0409C5.16899 2.7892 3.13349 5.98255 3.86639 9.16975C4.59929 12.36 7.8296 14.337 11.0784 13.5887L11.0753 13.5918Z" fill="#449FD3"/>
<path fill-rule="evenodd" clip-rule="evenodd" d="M11.0691 13.5639C14.3025 12.8187 16.3318 9.64379 15.602 6.46891C14.8722 3.29403 11.6573 1.32321 8.42388 2.06843C5.1905 2.81364 3.16116 5.98852 3.89406 9.1634C4.62389 12.3383 7.8388 14.3091 11.0722 13.5639H11.0691ZM11.0876 13.6439C14.3641 12.8895 16.4211 9.66842 15.6821 6.45043C14.943 3.23244 11.685 1.2339 8.40541 1.98836C5.12583 2.74282 3.07186 5.96389 3.81092 9.18187C4.55306 12.3999 7.808 14.3984 11.0876 13.6439Z" fill="#449FD3"/>
<path fill-rule="evenodd" clip-rule="evenodd" d="M11.0794 13.6165C14.3436 12.8652 16.3883 9.65949 15.6523 6.4569C14.9163 3.2543 11.6737 1.265 8.40953 2.01638C5.14535 2.76776 3.10062 5.97343 3.8366 9.17602C4.57258 12.3786 7.81828 14.3679 11.0794 13.6165ZM11.0979 13.6966C14.4051 12.936 16.4807 9.6872 15.7324 6.43842C14.9872 3.19272 11.6983 1.1757 8.39105 1.93631C5.08376 2.70001 3.00823 5.94879 3.75653 9.1945C4.50483 12.4433 7.79056 14.4572 11.0979 13.6966Z" fill="#409ED2"/>
<path fill-rule="evenodd" clip-rule="evenodd" d="M11.0958 13.6684C14.3877 12.9108 16.454 9.67437 15.7118 6.44407C14.9666 3.21068 11.6963 1.20598 8.4013 1.96352C5.10941 2.72105 3.04312 5.95752 3.78834 9.18783C4.53356 12.4212 7.8039 14.4259 11.0989 13.6684H11.0958ZM11.1143 13.7484C14.4524 12.9817 16.5464 9.70209 15.7919 6.42559C15.0374 3.14909 11.7209 1.11668 8.38283 1.88345C5.04782 2.65331 2.95382 5.9298 3.70828 9.2063C4.46273 12.4828 7.77926 14.5152 11.1173 13.7484H11.1143Z" fill="#3D9DD2"/>
<path fill-rule="evenodd" clip-rule="evenodd" d="M11.1048 13.7241C14.4275 12.9604 16.5123 9.69622 15.7609 6.43204C15.0095 3.17094 11.7084 1.14468 8.38568 1.91145C5.06299 2.67515 2.97823 5.93933 3.72961 9.20043C4.48098 12.4615 7.78212 14.4878 11.1048 13.721V13.7241ZM11.1233 13.8042C14.4891 13.0281 16.6016 9.72085 15.8409 6.41664C15.0803 3.10935 11.7361 1.05538 8.36721 1.83139C4.99833 2.6074 2.88893 5.91469 3.64954 9.21891C4.41016 12.5231 7.75748 14.5771 11.1233 13.8011V13.8042Z" fill="#389CD1"/>
<path fill-rule="evenodd" clip-rule="evenodd" d="M11.1184 13.7764C14.4718 13.0035 16.5751 9.71159 15.8175 6.41969C15.06 3.1278 11.7281 1.08615 8.37459 1.85908C5.02419 2.62894 2.92095 5.92391 3.67848 9.21272C4.43602 12.5046 7.76795 14.5463 11.1184 13.7733V13.7764ZM11.1368 13.8565C14.5334 13.0743 16.6644 9.73622 15.8976 6.4043C15.1308 3.06621 11.7527 0.996843 8.35612 1.77902C4.9626 2.56119 2.82857 5.89619 3.59842 9.2312C4.36519 12.5662 7.74023 14.6356 11.1368 13.8534V13.8565Z" fill="#389CD1"/>
<path fill-rule="evenodd" clip-rule="evenodd" d="M11.1298 13.8286C14.511 13.0495 16.6327 9.72681 15.869 6.4072C15.1053 3.08759 11.7457 1.02746 8.36141 1.80656C4.98021 2.58257 2.85849 5.90526 3.62219 9.22487C4.38588 12.5445 7.7486 14.6046 11.1298 13.8286ZM11.1483 13.9087C14.5757 13.1203 16.7251 9.75453 15.9491 6.38873C15.1762 3.026 11.7703 0.938162 8.34601 1.72649C4.91862 2.51482 2.76919 5.88062 3.54212 9.24334C4.31506 12.6061 7.72089 14.6939 11.1483 13.9056V13.9087Z" fill="#359BD1"/>
<path fill-rule="evenodd" clip-rule="evenodd" d="M11.1438 13.8809C14.5558 13.0957 16.696 9.74526 15.9261 6.39485C15.1532 3.04445 11.7627 0.965845 8.35382 1.7511C4.94183 2.53635 2.80164 5.88983 3.57149 9.23715C4.34134 12.5876 7.73178 14.6662 11.1438 13.8809ZM11.1622 13.961C14.6174 13.1665 16.7853 9.76989 16.0062 6.37638C15.224 2.98286 11.7904 0.876543 8.33534 1.67411C4.87716 2.4686 2.70925 5.86519 3.49142 9.25563C4.2736 12.6491 7.70714 14.7555 11.1622 13.9579V13.961Z" fill="#309AD0"/>
<path fill-rule="evenodd" clip-rule="evenodd" d="M11.1551 13.9336C14.5948 13.1422 16.7565 9.76096 15.9774 6.38284C15.2014 3.00472 11.7802 0.907643 8.34049 1.69905C4.89771 2.49046 2.73904 5.87166 3.51813 9.24977C4.29722 12.6279 7.71537 14.725 11.1551 13.9336ZM11.1736 14.0136C14.6595 13.2099 16.8458 9.78559 16.0575 6.36436C15.2692 2.94313 11.8079 0.81834 8.32202 1.62206C4.83612 2.42271 2.64973 5.84702 3.43498 9.26825C4.22331 12.6895 7.68766 14.8143 11.1736 14.0105V14.0136Z" fill="#2B98D0"/>
<path fill-rule="evenodd" clip-rule="evenodd" d="M11.1689 13.9859C14.6394 13.1883 16.8166 9.77632 16.0344 6.37049C15.2491 2.96157 11.8002 0.849094 8.3297 1.64666C4.8592 2.44731 2.67898 5.85622 3.46423 9.26206C4.24948 12.671 7.69842 14.7834 11.1689 13.9859ZM11.1874 14.0659C14.7041 13.2561 16.909 9.80403 16.1145 6.35201C15.32 2.89998 11.8248 0.759791 8.31123 1.5666C4.79454 2.37648 2.58967 5.83159 3.38416 9.28053C4.17865 12.7326 7.67071 14.8728 11.1874 14.0629V14.0659Z" fill="#2797CF"/>
<path fill-rule="evenodd" clip-rule="evenodd" d="M11.1812 14.038C14.6825 13.2312 16.8781 9.7946 16.0867 6.35798C15.2953 2.92135 11.8155 0.787311 8.31732 1.59412C4.81603 2.40093 2.6204 5.83755 3.41181 9.27418C4.20322 12.7108 7.68296 14.8448 11.1812 14.038ZM11.1997 14.1181C14.7441 13.3021 16.9674 9.81924 16.1667 6.3395C15.3661 2.85976 11.8433 0.698008 8.29884 1.51406C4.75444 2.3301 2.52802 5.81292 3.32867 9.29266C4.12932 12.7724 7.65217 14.9341 11.1966 14.1181H11.1997Z" fill="#2797CF"/>
<path fill-rule="evenodd" clip-rule="evenodd" d="M11.1907 14.0904C14.7197 13.2774 16.9368 9.80998 16.1393 6.34256C15.3386 2.87821 11.8312 0.728784 8.30217 1.54175C4.77008 2.35471 2.55598 5.82213 3.35355 9.28648C4.15112 12.7508 7.65857 14.9033 11.1907 14.0904ZM11.2091 14.1704C14.7843 13.3482 17.0262 9.83461 16.2193 6.32716C15.4095 2.81662 11.8589 0.639481 8.28369 1.46168C4.70849 2.28389 2.46668 5.7975 3.27348 9.30495C4.08029 12.8155 7.63394 14.9926 11.2091 14.1704Z" fill="#2096CF"/>
<path fill-rule="evenodd" clip-rule="evenodd" d="M11.2046 14.1461C14.7644 13.327 16.997 9.82875 16.1933 6.33361C15.3896 2.83848 11.8513 0.670566 8.2915 1.48969C4.7317 2.30882 2.49912 5.80703 3.30285 9.29909C4.10658 12.7942 7.64483 14.9621 11.2046 14.143V14.1461ZM11.2231 14.2262C14.826 13.3978 17.0894 9.85646 16.2733 6.31821C15.4573 2.77689 11.8759 0.581263 8.27303 1.40963C4.66703 2.23799 2.40674 5.77932 3.22279 9.31756C4.03883 12.8558 7.62019 15.0514 11.2231 14.2231V14.2262Z" fill="#1A95CE"/>
<path fill-rule="evenodd" clip-rule="evenodd" d="M11.2168 14.1984C14.8074 13.3731 17.0584 9.8472 16.2485 6.32127C15.4356 2.79842 11.8665 0.608955 8.279 1.43732C4.6884 2.2626 2.43735 5.78853 3.24723 9.31139C4.05712 12.8342 7.62616 15.0237 11.2137 14.1953L11.2168 14.1984ZM11.2352 14.2785C14.8689 13.4409 17.1477 9.87184 16.3286 6.3028C15.5064 2.73375 11.8942 0.519652 8.26052 1.35726C4.62681 2.19486 2.34496 5.7639 3.16717 9.32986C3.98937 12.8989 7.59845 15.113 11.2322 14.2754L11.2352 14.2785Z" fill="#1094CE"/>
<path fill-rule="evenodd" clip-rule="evenodd" d="M11.2298 14.2506C14.8481 13.4161 17.1207 9.86242 16.3016 6.30877C15.4825 2.75513 11.8857 0.550264 8.26739 1.38479C4.64907 2.21623 2.37646 5.77295 3.19559 9.32352C4.01471 12.8772 7.61147 15.082 11.2298 14.2475V14.2506ZM11.2483 14.3306C14.9128 13.4869 17.21 9.88705 16.3816 6.29029C15.5533 2.69354 11.9134 0.460961 8.24891 1.30472C4.58441 2.14848 2.28716 5.74832 3.11552 9.34199C3.94389 12.9388 7.58376 15.1713 11.2483 14.3276V14.3306Z" fill="#0593CD"/>
<path fill-rule="evenodd" clip-rule="evenodd" d="M11.242 14.3029C14.8911 13.4622 17.1791 9.87779 16.3569 6.29643C15.5286 2.71507 11.9041 0.491731 8.255 1.32933C4.6059 2.17001 2.31789 5.75445 3.14009 9.33889C3.96538 12.9203 7.58985 15.1436 11.239 14.3029H11.242ZM11.2605 14.383C14.9527 13.5331 17.2715 9.9055 16.437 6.27795C15.5994 2.6504 11.9287 0.402428 8.23653 1.25235C4.54431 2.10227 2.22551 5.72982 3.06003 9.35737C3.89455 12.9818 7.56521 15.2329 11.2574 14.383H11.2605Z" fill="#0593CD"/>
<path fill-rule="evenodd" clip-rule="evenodd" d="M11.2549 14.3556C14.9318 13.5087 17.2413 9.89348 16.4099 6.28441C15.5784 2.67225 11.9232 0.430443 8.24327 1.27728C4.56645 2.12412 2.25689 5.73935 3.08833 9.35151C3.91977 12.9637 7.57504 15.2055 11.2549 14.3586V14.3556ZM11.2734 14.4356C14.9964 13.5795 17.3337 9.9212 16.4899 6.26593C15.6493 2.61067 11.9478 0.34114 8.22479 1.20029C4.50178 2.05637 2.16758 5.71472 3.00826 9.36998C3.84894 13.0252 7.5504 15.2948 11.2734 14.4356Z" fill="#0092CD"/>
<path fill-rule="evenodd" clip-rule="evenodd" d="M11.2641 14.4079C14.9717 13.5549 17.2998 9.91192 16.4622 6.27205C15.6246 2.63219 11.9385 0.371893 8.23089 1.22489C4.52327 2.07789 2.19523 5.72084 3.03591 9.36379C3.87351 13.0037 7.55957 15.2639 11.2672 14.4109L11.2641 14.4079ZM11.2826 14.4879C15.0364 13.6257 17.3891 9.93656 16.5422 6.25358C15.6954 2.56752 11.9662 0.28259 8.21241 1.14483C4.46168 2.01014 2.10593 5.6962 2.95277 9.38226C3.79961 13.0652 7.52878 15.3532 11.2826 14.4879Z" fill="#0091CC"/>
<path fill-rule="evenodd" clip-rule="evenodd" d="M11.2745 14.46C15.0129 13.6009 17.3564 9.92714 16.5126 6.25647C15.6689 2.58889 11.9551 0.313204 8.21668 1.17236C4.47827 2.03152 2.13484 5.70526 2.9786 9.37592C3.82235 13.0466 7.53921 15.3223 11.2745 14.4631V14.46ZM11.293 14.5401C15.0745 13.6686 17.4488 9.95485 16.5927 6.24108C15.7397 2.5273 11.9797 0.223901 8.1982 1.09229C4.41668 1.96377 2.04245 5.68062 2.89853 9.3944C3.75461 13.1082 7.5115 15.4116 11.293 14.5401Z" fill="#0090CC"/>
<path fill-rule="evenodd" clip-rule="evenodd" d="M11.2894 14.5124C15.0556 13.644 17.4205 9.94253 16.5706 6.24415C15.7176 2.54886 11.9761 0.251612 8.20694 1.12001C4.44081 1.98532 2.07582 5.68678 2.92882 9.38824C3.77874 13.0866 7.52331 15.3839 11.2925 14.5155L11.2894 14.5124ZM11.3018 14.5647C15.0987 13.6902 17.4821 9.96101 16.623 6.23184C15.7669 2.50574 11.9915 0.193103 8.19462 1.06766C4.3977 1.94221 2.01731 5.67138 2.87339 9.40056C3.72947 13.1297 7.50483 15.4424 11.3018 14.5678V14.5647Z" fill="#0090CC"/>
</g>
<path d="M12.6895 19.7874C12.0305 19.9259 11.3438 19.9998 10.6416 19.9998C5.31426 19.9998 1 15.7903 1 10.5984C1 7.36809 2.66596 4.52271 5.20956 2.82903H2.28412C2.06548 2.82903 1.88379 2.65043 1.88379 2.42871C1.88379 2.20699 2.0624 2.02838 2.28412 2.02838H6.55526C6.55526 2.02838 6.57682 2.02838 6.58914 2.02838C6.64149 2.0253 6.69384 2.02838 6.74619 2.04686C6.95559 2.11769 7.06953 2.34556 6.9987 2.55188L5.64992 6.60439C5.57909 6.81379 5.35121 6.92773 5.14489 6.85691C4.93549 6.78608 4.82155 6.5582 4.89238 6.35188L5.89319 3.34637C3.44198 4.87684 1.81912 7.55285 1.81912 10.5984C1.81912 15.3499 5.77001 19.2023 10.6416 19.2023C11.2452 19.2023 11.8334 19.1438 12.4031 19.0298C12.6895 19.0021 12.9019 18.9867 13.019 19.2916C13.099 19.4948 13.0128 19.7135 12.6895 19.7874Z" fill="#0090CC" stroke="#0090CC" stroke-width="0.42188" stroke-miterlimit="2.61"/>
<path fill-rule="evenodd" clip-rule="evenodd" d="M8.54871 1.21248C9.2077 1.07391 9.89441 1 10.5965 1C15.9208 1 20.2382 5.20956 20.2382 10.4015C20.2382 13.6287 18.5691 16.4771 16.0286 18.1708H18.951C19.1696 18.1708 19.3513 18.3494 19.3513 18.5711C19.3513 18.7929 19.1727 18.9715 18.951 18.9715H14.6798C14.6798 18.9715 14.6583 18.9715 14.6459 18.9715C14.5936 18.9745 14.5412 18.9715 14.4889 18.953C14.2795 18.8822 14.1656 18.6574 14.2364 18.448L15.5852 14.3955C15.656 14.1861 15.8808 14.0721 16.0902 14.1429C16.2996 14.2138 16.4135 14.4416 16.3427 14.648L15.3419 17.6535C17.79 16.123 19.4129 13.4501 19.4129 10.4045C19.4129 5.653 15.462 1.80065 10.5904 1.80065C9.98679 1.80065 9.39863 1.85916 8.82893 1.9731C8.54255 2.00081 8.33007 2.01621 8.21305 1.71134C8.13299 1.5081 8.21921 1.28947 8.54255 1.21556L8.54871 1.21248Z" fill="#808285" stroke="#808285" stroke-width="0.42188" stroke-miterlimit="2.61"/>
</svg>
